<?xml version="1.0" standalone="no"?>
<!DOCTYPE svg PUBLIC "-//W3C//DTD SVG 20010904//EN"
 "http://www.w3.org/TR/2001/REC-SVG-20010904/DTD/svg10.dtd">
<svg version="1.0" xmlns="http://www.w3.org/2000/svg"
 width="2000.000000pt" height="2000.000000pt" viewBox="0 0 2000.000000 2000.000000"
 preserveAspectRatio="xMidYMid meet">

<g transform="translate(0.000000,2000.000000) scale(0.100000,-0.100000)"
fill="#000000" stroke="none">
<path d="M7635 19080 c-145 -23 -252 -77 -356 -180 -58 -58 -86 -96 -118 -160
-60 -122 -70 -193 -71 -497 l0 -253 786 0 786 0 -4 293 c-3 286 -4 294 -30
367 -40 113 -74 167 -157 250 -83 83 -173 136 -276 165 -71 19 -463 30 -560
15z"/>
<path d="M12418 19079 c-199 -26 -381 -156 -472 -337 -59 -119 -66 -166 -66
-475 l0 -277 780 0 780 0 0 278 c0 314 -5 345 -70 478 -88 180 -265 304 -474
333 -90 13 -380 12 -478 0z"/>
<path d="M6920 17513 c-656 -48 -1264 -371 -1682 -894 -122 -152 -114 -138
-893 -1489 -554 -959 -938 -1626 -1138 -1972 -114 -197 -299 -518 -412 -713
-471 -816 -622 -1077 -690 -1195 -40 -69 -114 -197 -165 -285 -203 -352 -292
-574 -350 -875 -98 -514 -15 -1075 227 -1530 74 -138 36 -72 1828 -3175 194
-335 581 -1006 860 -1490 279 -484 541 -934 583 -1000 247 -390 592 -695 1002
-888 211 -99 431 -164 685 -204 115 -17 263 -18 3490 -18 3224 0 3375 1 3495
18 407 61 771 210 1095 449 129 96 327 286 428 413 131 163 179 241 672 1100
50 88 186 322 300 520 549 949 676 1171 692 1214 44 113 8 249 -87 334 -48 43
-813 493 -914 537 -40 18 -62 21 -125 18 -153 -8 -212 -60 -355 -310 -346
-602 -911 -1575 -951 -1638 -323 -503 -841 -868 -1430 -1008 -300 -72 -107
-67 -2820 -67 -2322 0 -2446 1 -2565 18 -486 72 -891 254 -1245 558 -115 98
-194 181 -299 312 -126 158 -34 2 -1281 2162 -279 484 -542 939 -583 1010 -41
72 -116 202 -167 290 -461 795 -510 885 -577 1050 -168 411 -215 884 -132
1320 56 290 140 513 304 800 63 112 565 982 845 1465 100 173 377 653 615
1065 237 413 449 779 470 815 21 36 95 164 165 285 225 391 325 535 484 698
376 386 833 619 1386 704 114 17 239 18 2580 18 2340 0 2466 -1 2585 -18 627
-93 1157 -396 1542 -883 109 -137 128 -169 786 -1314 311 -539 387 -664 432
-711 89 -90 204 -121 317 -83 42 14 645 355 849 480 131 80 186 165 187 290 2
81 -9 112 -89 249 -29 50 -195 338 -370 640 -174 303 -409 710 -522 905 -113
195 -247 429 -300 520 -274 476 -337 569 -516 760 -362 386 -810 625 -1356
723 -115 21 -126 21 -3480 22 -1851 1 -3385 0 -3410 -2z"/>
<path d="M7826 15459 c-206 -19 -434 -81 -628 -172 l-108 -50 0 -5584 0 -5583
33 -20 c52 -32 239 -108 332 -135 236 -68 448 -88 905 -83 l295 3 3 5818 2
5817 -367 -1 c-203 -1 -412 -6 -467 -10z"/>
<path d="M11880 9649 l0 -5822 413 6 c311 4 438 9 517 22 192 30 359 81 529
161 l101 47 0 5588 0 5589 -47 24 c-84 42 -219 95 -321 125 -223 66 -376 81
-844 81 l-348 0 0 -5821z"/>
<path d="M7093 1023 c5 -317 8 -341 71 -468 68 -137 208 -257 357 -306 71 -23
84 -24 354 -24 269 0 283 1 354 24 147 48 283 162 353 297 68 130 71 148 76
472 l4 292 -787 0 -787 0 5 -287z"/>
<path d="M11880 1032 c0 -218 3 -290 15 -337 61 -232 230 -401 464 -460 51
-14 108 -16 329 -13 247 4 272 6 329 27 183 67 320 203 392 389 25 66 26 72
29 370 l3 302 -780 0 -781 0 0 -278z"/>
</g>
</svg>
