<?xml version="1.0" standalone="no"?>
<!DOCTYPE svg PUBLIC "-//W3C//DTD SVG 20010904//EN"
 "http://www.w3.org/TR/2001/REC-SVG-20010904/DTD/svg10.dtd">
<svg version="1.0" xmlns="http://www.w3.org/2000/svg"
 width="2307.000000pt" height="2307.000000pt" viewBox="0 0 2307.000000 2307.000000"
 preserveAspectRatio="xMidYMid meet">

<g transform="translate(0.000000,2307.000000) scale(0.100000,-0.100000)"
fill="#000000" stroke="none">
<path d="M10450 22447 c-586 -337 -2341 -1351 -3900 -2252 -1559 -901 -3325
-1921 -3925 -2266 l-1090 -626 0 -5768 0 -5768 930 -534 c512 -295 2246 -1289
3855 -2211 1609 -921 3448 -1976 4088 -2344 639 -367 1166 -669 1170 -671 16
-4 2079 1188 4862 2812 1570 916 3357 1954 3970 2307 l1115 641 0 5768 0 5768
-965 555 c-531 305 -2322 1339 -3980 2297 -3793 2192 -5020 2898 -5045 2902
-12 2 -425 -230 -1085 -610z m3967 -5911 l2878 -1663 0 -3338 0 -3338 -2878
-1663 c-1583 -915 -2882 -1664 -2887 -1664 -4 0 -1303 749 -2886 1664 l-2879
1664 0 3337 0 3337 2875 1663 c1581 915 2880 1664 2887 1664 6 1 1307 -748
2890 -1663z"/>
</g>
</svg>
